# xmcd
#
# Track frame offsets: 
#        183
#        13285
#        26395
#        43438
#        60233
#        74530
#        92263
#        105148
#        121270
#        135898
#
# Disc length: 1982 seconds
#
# Revision: 4
# Processed by: cddbd v1.5.1PL2 Copyright (c) Steve Scherf et al.
# Submitted via: ExactAudioCopy v0.95b3
#
DISCID=7407bc0a
DTITLE=Marie Osmond - There's No Stopping Your Heart
DYEAR=1985
DGENRE=Country
TTITLE0=There's No Stopping Your Heart
TTITLE1=Needing A Night Like This
TTITLE2=Read My Lips
TTITLE3=The Best Of You
TTITLE4=I'll Be Faithful To You
TTITLE5=Meet Me In Montana
TTITLE6=That Old Devil Moon
TTITLE7=Love Will Find Its Way To You
TTITLE8=Until I Fall In Love Again
TTITLE9=Blue Sky Shinin'
EXTD=
EXTT0=
EXTT1=
EXTT2=
EXTT3=
EXTT4=
EXTT5=
EXTT6=
EXTT7=
EXTT8=
EXTT9=
PLAYORDER=
